<?xml version="1.0" standalone="no"?>
<!DOCTYPE svg PUBLIC "-//W3C//DTD SVG 20010904//EN"
 "http://www.w3.org/TR/2001/REC-SVG-20010904/DTD/svg10.dtd">
<svg version="1.0" xmlns="http://www.w3.org/2000/svg"
 width="300.000000pt" height="123.000000pt" viewBox="0 0 300.000000 123.000000"
 preserveAspectRatio="xMidYMid meet">
<metadata>
Created by potrace 1.10, written by Peter Selinger 2001-2011
</metadata>
<g transform="translate(0.000000,123.000000) scale(0.100000,-0.100000)"
fill="#000000" stroke="none">
<path d="M114 1021 c-2 -2 -4 -184 -4 -403 l0 -398 313 0 312 0 -3 307 -3 308
-91 92 -92 92 -214 3 c-117 2 -216 1 -218 -1z m406 -121 l0 -90 90 0 90 0 0
-280 0 -280 -277 0 -278 0 0 370 0 370 188 0 187 0 0 -90z m93 3 l67 -68 -65
3 -65 4 0 48 c0 27 -3 55 -6 64 -3 9 -4 16 -2 16 2 0 34 -30 71 -67z"/>
<path d="M410 796 c-8 -22 -8 -31 1 -37 21 -13 3 -33 -57 -64 l-59 -30 -3 -85
c-3 -86 -16 -116 -46 -104 -7 3 -21 -4 -31 -16 -18 -20 -18 -20 13 -20 18 0
32 4 32 10 0 5 9 14 19 19 15 8 33 4 80 -21 l62 -32 62 31 c54 26 66 29 85 19
13 -7 19 -15 16 -19 -4 -4 7 -7 25 -7 28 0 31 2 21 19 -12 24 -30 36 -30 21 0
-8 -6 -8 -20 0 -18 9 -20 21 -20 95 l0 85 -65 32 c-52 26 -65 37 -65 56 0 13
4 20 10 17 14 -9 12 5 -5 35 l-13 25 -12 -29z m7 -141 c0 -25 -1 -45 -1 -45
-1 0 -23 11 -50 24 l-49 24 44 20 c24 11 47 21 50 21 3 1 6 -19 6 -44z m64 24
c23 -11 39 -22 37 -23 -1 -2 -22 -13 -45 -25 l-43 -21 0 45 c0 25 2 45 5 45 3
0 24 -9 46 -21z m-110 -64 c63 -33 61 -51 -9 -88 l-52 -28 0 70 c0 39 2 71 5
71 3 0 28 -11 56 -25z m169 -45 l0 -70 -55 27 c-70 34 -71 54 -7 87 26 14 50
25 55 26 4 0 7 -31 7 -70z m-124 -85 c0 -25 0 -45 0 -45 -1 0 -23 11 -50 24
l-49 24 39 20 c21 12 44 21 49 22 6 0 10 -20 11 -45z m67 25 c20 -8 37 -17 37
-20 0 -3 -20 -16 -45 -28 l-45 -22 0 46 c0 25 3 44 8 42 4 -2 24 -10 45 -18z"/>
<path d="M1620 778 c-118 -33 -170 -173 -105 -283 38 -65 88 -88 179 -83 39 3
83 10 99 16 27 11 27 13 27 102 l0 90 -69 0 c-66 0 -68 -1 -68 -25 0 -23 3
-25 44 -25 l44 0 -3 -52 -3 -53 -56 -9 c-68 -11 -118 9 -149 59 -24 39 -27
113 -5 156 34 64 128 89 192 50 30 -19 32 -19 48 -1 16 17 15 19 -9 35 -26 17
-88 35 -116 34 -8 -1 -31 -5 -50 -11z"/>
<path d="M832 598 l3 -183 24 0 c24 0 24 1 22 83 l-2 82 69 0 c82 0 117 21
128 75 15 81 -45 125 -169 125 l-77 0 2 -182z m187 101 c13 -24 13 -29 -2 -53
-16 -23 -24 -26 -77 -26 l-60 0 0 53 c0 30 2 56 4 58 3 2 31 2 63 -1 49 -4 59
-9 72 -31z"/>
<path d="M1132 771 c-8 -4 -12 -19 -10 -32 4 -29 45 -34 61 -7 19 30 -19 60
-51 39z"/>
<path d="M2460 759 c-9 -15 -8 -24 1 -35 18 -22 53 -13 57 15 6 40 -39 56 -58
20z"/>
<path d="M1130 535 l0 -125 25 0 25 0 0 125 0 125 -25 0 -25 0 0 -125z"/>
<path d="M1298 644 c-78 -42 -76 -178 2 -219 38 -19 93 -19 131 1 29 15 30 16
14 34 -16 18 -19 18 -41 3 -16 -10 -33 -13 -51 -8 -45 11 -63 34 -63 80 0 70
63 108 117 70 18 -13 22 -12 38 5 16 18 15 19 -14 34 -37 20 -97 20 -133 0z"/>
<path d="M1938 644 c-78 -42 -76 -178 2 -219 16 -8 46 -15 67 -15 37 0 103 31
103 49 0 17 -32 21 -53 6 -30 -21 -70 -19 -101 6 -50 39 -36 49 70 49 l97 0
-6 43 c-11 82 -102 123 -179 81z m120 -41 c28 -38 16 -48 -58 -48 -57 0 -70 3
-70 16 0 50 95 73 128 32z"/>
<path d="M2180 534 c0 -121 1 -125 21 -122 19 3 21 10 22 84 2 93 19 124 68
124 45 0 61 -34 58 -127 -2 -73 -1 -78 19 -81 21 -3 22 0 22 96 0 85 -3 103
-21 126 -27 34 -91 37 -126 4 l-23 -21 0 21 c0 15 -6 22 -20 22 -19 0 -20 -7
-20 -126z"/>
<path d="M2467 538 c1 -116 2 -123 22 -126 20 -3 21 1 21 122 0 124 0 126 -22
126 -23 0 -23 -2 -21 -122z"/>
<path d="M2629 645 c-37 -20 -63 -78 -56 -128 12 -88 118 -136 195 -88 17 12
32 25 32 30 0 17 -32 21 -53 6 -30 -21 -70 -19 -101 6 -50 39 -36 49 73 49
109 0 101 -6 86 63 -10 47 -51 77 -104 77 -25 -1 -58 -7 -72 -15z m118 -38 c6
-7 13 -20 15 -30 3 -16 -6 -18 -70 -20 -74 -2 -79 1 -61 34 20 38 85 46 116
16z"/>
</g>
</svg>
